HIERARCHY
ROOT RootJoint
{
    OFFSET   0.000000   0.000000   0.000000
    CHANNELS 6 Xposition Yposition Zposition Xrotation Yrotation Zrotation
    JOINT lHip
    {
        OFFSET   0.100000  -0.051395   0.000000
        CHANNELS 3 Xrotation Yrotation Zrotation
        JOINT lKnee
        {
            OFFSET   0.000000  -0.410000   0.000000
            CHANNELS 3 Xrotation Yrotation Zrotation
            JOINT lAnkle
            {
                OFFSET   0.000000  -0.390000   0.000000
                CHANNELS 3 Xrotation Yrotation Zrotation
                JOINT lToeJoint
                {
                    OFFSET   0.000000  -0.050000   0.130000
                    CHANNELS 3 Xrotation Yrotation Zrotation
                    End Site
                    {
                        OFFSET   0.010000   0.002000   0.060000
                    }
                }
            }
        }
    }
    JOINT rHip
    {
        OFFSET  -0.100000  -0.051395   0.000000
        CHANNELS 3 Xrotation Yrotation Zrotation
        JOINT rKnee
        {
            OFFSET   0.000000  -0.410000   0.000000
            CHANNELS 3 Xrotation Yrotation Zrotation
            JOINT rAnkle
            {
                OFFSET   0.000000  -0.390000   0.000000
                CHANNELS 3 Xrotation Yrotation Zrotation
                JOINT rToeJoint
                {
                    OFFSET   0.000000  -0.050000   0.130000
                    CHANNELS 3 Xrotation Yrotation Zrotation
                    End Site
                    {
                        OFFSET  -0.010000   0.002000   0.060000
                    }
                }
            }
        }
    }
    JOINT pelvis_lowerback
    {
        OFFSET   0.000000   0.093605   0.000000
        CHANNELS 3 Xrotation Yrotation Zrotation
        JOINT lowerback_torso
        {
            OFFSET   0.000000   0.100000   0.000000
            CHANNELS 3 Xrotation Yrotation Zrotation
            JOINT torso_head
            {
                OFFSET   0.000000   0.282350   0.000000
                CHANNELS 3 Xrotation Yrotation Zrotation
                End Site
                {
                    OFFSET   0.000000   0.192650   0.000000
                }
            }
            JOINT lTorso_Clavicle
            {
                OFFSET   0.001000   0.157500   0.000000
                CHANNELS 3 Xrotation Yrotation Zrotation
                JOINT lShoulder
                {
                    OFFSET   0.117647   0.000000   0.000000
                    CHANNELS 3 Xrotation Yrotation Zrotation
                    JOINT lElbow
                    {
                        OFFSET   0.245000   0.000000   0.000000
                        CHANNELS 3 Xrotation Yrotation Zrotation
                        JOINT lWrist
                        {
                            OFFSET   0.240000   0.000000   0.000000
                            CHANNELS 3 Xrotation Yrotation Zrotation
                            End Site
                            {
                                OFFSET   0.116353  -0.002500   0.000000
                            }
                        }
                    }
                }
            }
            JOINT rTorso_Clavicle
            {
                OFFSET  -0.001000   0.157500   0.000000
                CHANNELS 3 Xrotation Yrotation Zrotation
                JOINT rShoulder
                {
                    OFFSET  -0.117647   0.000000   0.000000
                    CHANNELS 3 Xrotation Yrotation Zrotation
                    JOINT rElbow
                    {
                        OFFSET  -0.245000   0.000000   0.000000
                        CHANNELS 3 Xrotation Yrotation Zrotation
                        JOINT rWrist
                        {
                            OFFSET  -0.240000   0.000000   0.000000
                            CHANNELS 3 Xrotation Yrotation Zrotation
                            End Site
                            {
                                OFFSET  -0.116353  -0.002500   0.000000
                            }
                        }
                    }
                }
            }
        }
    }
}
MOTION
Frames: 11
Frame Time:   0.010000
  2.220498   0.886690  -0.261038 135.044100  86.726356 -121.164462  -9.911491  -4.818791 -14.506566  -2.179640   0.000000   0.000000   9.152744  13.289573 -10.232054  17.222000   0.000000   0.000000  -8.341573  -5.923421 -15.034296  60.179800   0.000000   0.000000   6.158868 -10.858135  27.597365  15.704060   0.000000   0.000000  -6.880654   8.395470  -5.507503   4.503840  -8.445661  -9.012121 -63.015418 -52.570282 -30.724567   8.162318  21.777609   4.376673 -48.539314  -2.496122 -23.304506  -0.000200 -42.029240  -0.000100  47.481203   2.942235  32.982587   7.468322 -18.116387 -10.142984 -59.145536  33.337129   7.880302  -0.000100  21.007520   0.000000  32.159783 -10.201278 -64.447517
  2.230157   0.887733  -0.262619 134.357454  86.771116 -120.321854  -9.036413  -4.314442 -14.778074  -2.382800   0.000000   0.000000   8.769584  12.733760 -10.115724  16.985960   0.000000   0.000000 -10.186977  -5.237855 -15.118384  62.766000   0.000000   0.000000   5.434959 -12.103130  26.422610  14.542220   0.000000   0.000000  -6.950637   8.246508  -5.505591   4.348425  -8.601163  -8.952718 -63.289129 -52.565780 -30.934774   8.175657  21.709669   4.620378 -48.038279  -2.385848 -23.150811  -0.000200 -41.034480  -0.000100  47.434677   2.791732  33.124476   7.391019 -18.169331 -10.130382 -59.527812  34.190165   8.316426  -0.000100  20.770760   0.000000  32.248654 -10.214842 -64.380705
  2.239829   0.888953  -0.263642 132.994500  86.882900 -118.934700  -8.213000  -4.082500 -14.915200  -2.510000   0.000000   0.000000   7.873500  12.694900  -8.722300  17.118900   0.000000   0.000000 -11.868600  -4.405300 -14.918400  64.850900   0.000000   0.000000   4.628500 -13.082600  25.382700  13.458400   0.000000   0.000000  -6.900300   8.181600  -5.609300   4.248700  -8.632300  -8.948400 -63.714402 -52.536677 -31.283150   7.889700  21.625000   4.836700 -47.157700  -2.444700 -22.911700  -0.000200 -40.018500  -0.000100  47.266000   2.703800  33.114500   7.449300 -18.291000 -10.019200 -59.857900  35.175000   8.562000  -0.000100  20.591100   0.000000  32.001800  -9.962400 -64.191800
  2.249251   0.890319  -0.264420 132.273412  86.976481 -118.271932  -7.551204  -4.037534 -14.964994  -2.412900   0.000000   0.000000   7.155969  12.731856  -7.863130  16.863160   0.000000   0.000000 -13.490605  -3.623001 -14.612368  66.504320   0.000000   0.000000   3.824105 -13.554396  25.041773  14.654360   0.000000   0.000000  -6.916717   8.030899  -5.652516   4.106514  -8.768332  -8.903488 -63.936176 -52.453185 -31.450099   7.967832  21.614463   5.055025 -46.673522  -2.299271 -22.735945  -0.000200 -38.988280  -0.000100  47.223099   2.493036  33.234081   7.380198 -18.319719 -10.040920 -60.244096  36.163121   9.031825  -0.000100  20.291480  -0.000000  31.957128  -9.844265 -64.025046
  2.258318   0.891805  -0.264826 130.678708  87.038359 -116.874308  -7.021373  -3.922142 -14.850104  -2.129340   0.000000   0.000000   6.416970  12.730111  -7.253447  16.723120   0.000000   0.000000 -15.118250  -2.860800 -14.106847  67.781560   0.000000   0.000000   2.971328 -13.834992  24.823140  19.611400   0.000000   0.000000  -6.961471   7.902736  -5.692711   4.006066  -8.883251  -8.823011 -64.212542 -52.337037 -31.642376   7.870774  21.579674   5.317636 -46.049115  -2.160748 -22.559228  -0.000200 -37.952800  -0.000100  47.059068   2.198862  33.323492   7.377079 -18.351401  -9.980961 -60.540366  37.289224   9.328578  -0.000100  19.934720   0.000000  31.804950  -9.828427 -63.817915
  2.267257   0.893324  -0.264954 130.326806  87.042026 -116.821026  -6.527444  -3.816185 -14.621384  -1.788660   0.000000   0.000000   5.679142  12.629353  -6.733718  16.550380   0.000000   0.000000 -16.682938  -2.236152 -13.480508  68.650300   0.000000   0.000000   2.051172 -14.000943  24.545600  19.518700   0.000000   0.000000  -7.005383   7.760896  -5.759255   3.940541  -9.002829  -8.719151 -64.484504 -52.168106 -31.832844   7.790275  21.548706   5.593263 -45.479410  -1.903198 -22.399084  -0.000200 -36.959020  -0.000100  46.877058   1.983836  33.529433   7.382658 -18.368560  -9.923061 -60.839274  38.477712   9.609151  -0.000100  19.521800   0.000000  31.691323  -9.819391 -63.690668
  2.276221   0.894849  -0.264908 131.200683  87.009449 -118.052983  -6.033506  -3.800503 -14.319637  -1.464380   0.000000   0.000000   4.961631  12.543192  -6.232386  16.517340   0.000000   0.000000 -18.142847  -1.711273 -12.795587  69.121260   0.000000   0.000000   0.974546 -14.221538  24.773725  19.519620   0.000000   0.000000  -7.028550   7.612259  -5.833259   3.868267  -9.121391  -8.595594 -64.715586 -51.956578 -32.045517   7.693075  21.536628   5.873143 -44.936152  -1.575627 -22.264431  -0.000200 -36.017660  -0.000020  46.606629   1.879044  33.753974   7.381339 -18.395600  -9.877300 -61.167082  39.733021   9.935882  -0.000100  19.082080   0.000000  31.502047  -9.721898 -63.603845
  2.285166   0.896323  -0.264615 133.417600  86.927900 -120.702600  -5.549100  -4.365400 -13.935600  -1.389200   0.000000   0.000000   4.347900  12.965800  -5.672700  16.424300   0.000000   0.000000 -19.525900  -1.339300 -12.043100  69.220000   0.000000   0.000000  -0.185500 -14.714900  24.943000  19.519600   0.000000   0.000000  -7.083100   7.465600  -5.943800   3.900900  -9.227300  -8.428900 -65.021888 -51.700051 -32.309630   7.498900  21.429900   6.114300 -44.404000  -1.059800 -22.081900  -0.000100 -35.228600   0.000000  46.218400   1.911100  33.814200   7.317200 -18.488100  -9.828500 -61.639600  41.086900  10.390600  -0.000100  18.669300   0.000000  31.159400  -9.711900 -63.491600
  2.293894   0.897751  -0.264355 135.996078  86.801060 -123.691537  -5.144251  -4.629464 -13.569432  -1.058660   0.000000   0.000000   3.656146  13.051598  -5.282875  16.519440   0.000000   0.000000 -20.886302  -1.046557 -11.349103  68.988320   0.000000   0.000000  -1.239332 -15.485570  25.010424  19.519600   0.000000   0.000000  -6.992951   7.283723  -6.016892   3.711683  -9.354916  -8.298302 -65.204724 -51.438379 -32.553822   7.508378  21.515739   6.229782 -44.128196  -0.740216 -21.955188  -0.000100 -34.327560   0.000000  45.958119   1.828460  33.917898   7.178240 -18.469243  -9.878200 -62.271053  42.223898  11.077319  -0.000100  18.408080   0.000000  31.002548  -9.658326 -63.424079
  2.302526   0.899111  -0.264026 137.904334  86.677917 -125.994912  -4.749505  -4.885041 -13.199417  -0.746580   0.000000   0.000000   2.957259  13.116589  -4.847547  16.619680   0.000000   0.000000 -22.216570  -0.776614 -10.682011  68.466600   0.000000   0.000000  -2.177248 -16.396268  24.897803  19.519600   0.000000   0.000000  -6.936195   7.098641  -6.049294   3.551033  -9.498868  -8.150768 -65.455780 -51.192267 -32.840009   7.406312  21.535966   6.370689 -43.784802  -0.383587 -21.798082  -0.000100 -33.453280   0.000000  45.625365   1.708438  33.902679   7.063396 -18.452521  -9.898530 -63.098277  43.313776  11.860029  -0.000100  18.195880   0.000000  30.831197  -9.533983 -63.317608
  2.311136   0.900351  -0.263610 139.162551  86.583453 -127.640910  -4.318689  -5.030239 -12.832381  -0.446520   0.000000   0.000000   2.278460  13.138423  -4.302271  16.410580   0.000000   0.000000 -23.458697  -0.479704 -10.010912  67.675200   0.000000   0.000000  -2.980649 -17.329526  24.756876  18.788080   0.000000   0.000000  -6.894858   6.911560  -6.056549   3.385376  -9.655226  -8.012827 -65.774380 -50.961076 -33.180984   7.327526  21.594648   6.437773 -43.474317  -0.192463 -21.611989  -0.000100 -32.471920   0.000000  45.300866   1.538735  33.898097   6.963559 -18.390479  -9.896908 -64.011438  44.308618  12.640888  -0.000100  18.035860  -0.000000  30.674368  -9.349024 -63.203500
